<svg xmlns="http://www.w3.org/2000/svg" viewBox="0 0 95.51 79.87"><defs><style>.cls-1,.cls-3{fill:#f5f5f5;stroke:#39c4a1;stroke-miterlimit:10;}.cls-1{stroke-width:0.2px;}.cls-2{fill:#39c4a1;}.cls-3{stroke-width:0.02px;}</style></defs><title>caja</title><g id="Capa_2" data-name="Capa 2"><g id="Capa_3" data-name="Capa 3"><polygon class="cls-1" points="95.41 0.1 95.41 23.73 89.05 23.73 89.05 79.77 6.46 79.77 6.46 23.73 0.1 23.73 0.1 0.1 95.41 0.1"/><rect class="cls-2" x="0.1" y="16.62" width="95.31" height="7.07"/><rect class="cls-2" x="16.52" y="52.61" width="20.07" height="23.34"/><path class="cls-3" d="M34.57,61.74A7.41,7.41,0,0,0,27,54.56a7.4,7.4,0,0,0-7.6,7.18s-.59,4.73,7.57,12.66c7.46-7.2,7.66-11.76,7.63-12.54C34.56,61.82,34.57,61.78,34.57,61.74Zm-7.64,4.55a4.67,4.67,0,1,1,4.7-4.67A4.68,4.68,0,0,1,26.93,66.29Z"/></g></g></svg>