<svg xmlns="http://www.w3.org/2000/svg" viewBox="0 0 91.96 62.28"><defs><style>.cls-1{fill:#39c4a1;}.cls-2,.cls-3{fill:#f5f5f5;}.cls-2{stroke:#39c4a1;stroke-miterlimit:10;stroke-width:0.5px;}.cls-4{fill:#fff;}</style></defs><title>tarjeta</title><g id="Capa_2" data-name="Capa 2"><g id="Object"><rect class="cls-1" x="1.51" y="11.12" width="82.04" height="14.09"/><path class="cls-2" d="M84.63,30.17h.19V4.58A4.33,4.33,0,0,0,80.48.25H4.59A4.33,4.33,0,0,0,.25,4.58V51.21a4.33,4.33,0,0,0,4.34,4.33H64.52C61.35,42.85,71.54,30,84.63,30.17ZM1.51,22.29V8.2h82V22.29Z"/><path class="cls-3" d="M58,45.55c.4,22.23,33.43,22.22,33.82,0C91.43,23.32,58.4,23.32,58,45.55Zm30.09,0c-.29,17.1-25.72,17.09-26,0C62.39,28.45,87.81,28.46,88.1,45.55Z"/><path class="cls-1" d="M58,45.55A19.26,19.26,0,0,0,59.26,52a15.29,15.29,0,0,0,3.62,5.48,17.75,17.75,0,0,0,24,0A15.07,15.07,0,0,0,90.49,52a19.16,19.16,0,0,0,1.22-6.44H92a19.66,19.66,0,0,1-1.26,6.52A15.64,15.64,0,0,1,87,57.59a17.88,17.88,0,0,1-24.2-.05A15.3,15.3,0,0,1,59.23,52,19.2,19.2,0,0,1,58,45.55Z"/><path class="cls-1" d="M88.1,45.55a14.9,14.9,0,0,1-.93,5,11.86,11.86,0,0,1-2.77,4.24,13.78,13.78,0,0,1-18.64,0,11.72,11.72,0,0,1-2.82-4.25,14.82,14.82,0,0,1-1-5h.25a14.86,14.86,0,0,0,.92,4.94,11.65,11.65,0,0,0,2.75,4.2,13.65,13.65,0,0,0,18.46.05,11.79,11.79,0,0,0,2.79-4.21A14.83,14.83,0,0,0,88.1,45.55Z"/><path class="cls-4" d="M74.55,55.54c2.23.05,2.39.14,2.3-2.19,6.75-.84,7.24-8.83,0-9.59V41c2,1.45,2,.87,3.89-.28,1.5-1.16-2.81-3.2-3.89-3.23-.07-.68.35-2.41-.81-2.39-2.41-.08-2.36,0-2.3,2.35-6.66.79-6.72,8.43,0,9.24v3.5c-1.62-.37-2.48-2.5-3.5-1.86-.36.32-2,.87-1.9,1.49.88,1.92,3.31,3.22,5.4,3.57C73.78,54,73.45,55.57,74.55,55.54ZM76.85,47c1.74.43,1.45,2.54,0,3.07Zm-4.09-4.94a1.32,1.32,0,0,1,1-1.21v2.49A1.32,1.32,0,0,1,72.76,42.09Z"/><path class="cls-1" d="M73.21,42.83a1.32,1.32,0,0,0,1,1.27V41.61A1.32,1.32,0,0,0,73.21,42.83Z"/><path class="cls-1" d="M76.34,49.34a1.58,1.58,0,0,0,0-3.07Z"/><path class="cls-1" d="M62.05,45.55c.29,17.09,25.72,17.09,26,0C87.77,28.45,62.34,28.46,62.05,45.55ZM76.9,35.8v1.58c1.07,0,5.39,2.07,3.89,3.23-1.87,1.14-1.94,1.73-3.89.27v2.81c7.24.75,6.75,8.75,0,9.58-.05.68.29,2.22-.81,2.2-2.22,0-2.4.14-2.3-2.19-2.1-.35-4.52-1.65-5.4-3.57-.09-.62,1.54-1.18,1.9-1.49,1-.65,1.88,1.49,3.5,1.86v-3.5c-6.73-.82-6.66-8.45,0-9.24.06-.69-.34-2.37.81-2.35C75.28,35.05,76.93,34.67,76.9,35.8Z"/></g></g></svg>