<svg xmlns="http://www.w3.org/2000/svg" viewBox="0 0 113.65 100.57"><defs><style>.cls-1{fill:#fff;}.cls-1,.cls-2,.cls-3{stroke:#ff7272;stroke-miterlimit:10;}.cls-2,.cls-3{fill:#ff7272;}.cls-2{stroke-width:0.83px;}.cls-3{stroke-width:0.6px;}</style></defs><title>Recurso 3</title><g id="Capa_2" data-name="Capa 2"><g id="Capa_1-2" data-name="Capa 1"><path class="cls-1" d="M70.32,87.1a7.5,7.5,0,0,1,2.14,6.84,6.68,6.68,0,0,1-1.58,3A5.21,5.21,0,0,1,64,97.6a5.77,5.77,0,0,1-2.75-4.89A35.86,35.86,0,0,1,62.35,87L37.63,89c2.52,3.83,2.28,7.1-.83,9.84a6,6,0,0,1-7.16.16c-3.19-2.29-2.74-5.32-1.17-8.81-1,.19-1.64.28-2.29.44-1.29.31-2.55.72-3.85,1-1.6.3-2.54-.4-2.82-2.15a27.12,27.12,0,0,1-.26-3.93A95.06,95.06,0,0,0,18.16,69C17,62.63,16,56.2,14.78,49.8,13.61,43.61,12.26,37.46,11,31.27c-.4-2-.65-4-1-6-.23-1.38-.84-2.3-2.28-2.46-1.68-.19-3.34-.53-5-.82a3.56,3.56,0,0,1-1.61-.47,1.8,1.8,0,0,1-.63-1.45,1.46,1.46,0,0,1,1.25-.8c2.46.4,4.9.95,7.34,1.46a3.58,3.58,0,0,1,2.88,3c.33,1.49.54,3,.93,4.47.12.44.64,1.06,1,1.07,8.24.16,16.47.24,24.7.37,3.39.06,6.77.27,10.16.29s7.06-.11,10.58-.16c1.93,0,3.85-.1,5.78-.07,5.12.07,10.24.15,15.36.31a11.69,11.69,0,0,1,3.45.69,2,2,0,0,1,1,1.43c.59,8.87,1,17.75.13,26.63-.32,3.19-.53,6.4-1,9.57C83.47,72,82.19,73,78.66,73.23c-4.83.26-9.67.5-14.5.9-9.36.76-18.7,1.63-28,2.43-4.2.35-8.41.63-12.61,1-2,.17-2,.22-2.07,2.35,0,2.5-.11,5,0,7.5.09,1.8.39,2,1.95,1.46C28.76,87.08,34.3,87,39.8,86.49c6-.53,12.08-1.14,18.13-1.57,4.4-.31,8.81-.38,13.21-.57.51,0,1-.09,1.54-.13.73,0,1.5-.12,1.59,1s-.63,1.27-1.36,1.35-1.54.1-2.31.14ZM43,36.23c-1.5,1.48-2.84,2.84-4.21,4.16-2.21,2.12-2.26,2.13-1.09,5.1.83,2.09,1.8,4.11,2.75,6.24a4.67,4.67,0,0,0,.79-.53c2.12-2.32,4.25-4.63,6.3-7a2,2,0,0,0,.15-1.62c-.79-2.13-1.76-4.18-2.51-6.32a2.25,2.25,0,0,1,.31-1.92c.82-.56,1.34.23,1.67,1,.16.37.35.72.51,1.09.72,1.64,1.43,3.28,2.23,5.13.57-.56,1-.91,1.32-1.3,1.61-1.78,3.18-3.63,4.86-5.34.36-.38,1.11-.3,1.69-.43,0,.68.2,1.57-.11,2-1,1.44-2.27,2.73-3.42,4.07-1,1.19-2.72,2.27-2.9,3.59s1,3.05,1.69,4.55c.57,1.25,1.25,2.43,1.89,3.65a3.55,3.55,0,0,0,.6-.35c2.38-2.77,4.77-5.51,7.09-8.34a1.93,1.93,0,0,0,.09-1.62c-.72-1.65-1.61-3.23-2.37-4.87a2.27,2.27,0,0,1-.23-1.41c.1-.35.64-.85.9-.8a2,2,0,0,1,1.18.88c.92,1.64,1.76,3.33,2.75,5.23,1.75-1.83,3.33-3.48,4.91-5.15.64-.68,1.41-1.38,2.17-.52s.1,1.66-.56,2.33c-1.54,1.58-3,3.21-4.59,4.76a1.79,1.79,0,0,0-.38,2.3c.9,2,1.72,4,2.59,6a6.49,6.49,0,0,0,.61.89c1.71-2,3.3-4,5-5.84,2.21-2.52,2.19-2.48.56-5.45a26.77,26.77,0,0,1-1.94-4.25c-.16-.47.32-1.2.51-1.82.49.29,1,.57,1.45.89.11.06.13.26.2.4,1.26,2.33,1.89,5.13,4.19,6.71a.63.63,0,0,1,.23.52c-.51,1.54.6,2.71.75,4.08,0,.51-.21,1.39-.56,1.56-.66.33-1.4.12-1.6-.9-.1-.47-.27-.93-.42-1.46-.35.15-.56.17-.67.3-2.09,2.49-4.18,5-6.22,7.52A1.44,1.44,0,0,0,71,55.13c1,1.8,2,3.55,3.15,5.54,1.16-1.34,2.15-2.47,3.12-3.63.58-.71,1.37-1,1.92-.32a2.32,2.32,0,0,1-.24,2,23.77,23.77,0,0,1-2.65,3.18A1.78,1.78,0,0,0,76,64.16c.94,2,1.92,4.1,1.53,6.5,2.53.61,3.93-.26,4.32-2.8a55.1,55.1,0,0,0,.56-5.59c.3-6.58.61-13.15.77-19.73.07-2.8-.2-5.62-.4-8.42A1.86,1.86,0,0,0,82,32.75a6,6,0,0,0-2.34-.45c-5.17-.1-10.34-.15-15.51-.21-1.88,0-3.75,0-5.63,0-3.48.07-7,.27-10.44.25-3.06,0-6.11-.37-9.17-.39-5,0-10.07.14-15.1.13-2.87,0-5.73-.2-8.59-.26-1.7,0-1.78.11-1.42,1.95.44,2.25,1,4.47,1.36,6.73,2,11.15,4,22.3,5.83,33.48.22,1.33.82,1.48,1.68,1.43,1.59-.08,3.17-.28,4.76-.44,3-.29,6-.6,9-.87,3.69-.33,7.4-.61,11.09-1,3.87-.35,7.74-.85,11.61-1.12,4.93-.34,9.86-.52,14.79-.79A21,21,0,0,0,76,70.86l-2.23-6a30.12,30.12,0,0,1-2.88,2.89c-.46.36-1.46.57-1.8.28-.72-.61-.36-1.46.26-2.09.78-.81,1.6-1.59,2.33-2.45.27-.32.56-1,.42-1.28-.93-1.8-2-3.53-3.1-5.48-.5.59-.82.94-1.11,1.32-1.55,2-3.07,4.13-4.66,6.15-.86,1.1-1.68,2.08-.72,3.62a1.59,1.59,0,0,1-.29,1.43,2.24,2.24,0,0,1-1.5-.26c-.19-.08-.27-.51-.39-.79l-.29.58a6,6,0,0,1-2-.31,1.91,1.91,0,0,1,0-1.59c1.17-1.09.75-2.12.15-3.24s-1.2-2.32-1.81-3.46-1.14-2-1.82-3.26c-.77.91-1.37,1.55-1.89,2.26-1.56,2.11-3.05,4.29-4.65,6.37-.86,1.11-1.61,2.08-.62,3.61.22.33-.2,1.14-.33,1.74-.49-.14-1.19-.1-1.44-.45-.54-.73-.94-.68-1.66-.34-.43.2-1.07-.1-1.61-.18.16-.6.15-1.44.53-1.77a1.81,1.81,0,0,0,.47-2.61,12.46,12.46,0,0,1-.6-1.55L39.75,56.4c-.56.49-1,.83-1.41,1.23-1.77,1.76-3.46,3.64-5.31,5.28-1.35,1.19-1.73,2.34-.89,4a13.17,13.17,0,0,1,.64,2.49c.24,1,.43,1.93-.75,2.2s-1.31-.64-1.48-1.57c-.22-1.14-.53-2.26-.9-3.8-1.61,1.62-2.84,3-4.18,4.13-.4.35-1.13.25-1.71.36,0-.69-.17-1.57.15-2a15.29,15.29,0,0,1,2.33-2.43c2.64-2.52,2.67-2.52,1.37-6.07-.67-1.83-1.42-3.62-2.22-5.65-.63.61-1,1.15-1.46,1.36a1.72,1.72,0,0,1-1.49,0c-.24-.16-.25-1-.08-1.48a5.05,5.05,0,0,1,1.15-1.54,2,2,0,0,0,.38-2.48c-.41-1-.73-2-1.09-3-.44-1.2-.87-2.41-1.31-3.62l-.66-.42a9.06,9.06,0,0,1-.73,1.5c-.48.63-1.22,1.15-1.76.31a2.11,2.11,0,0,1,.16-1.92c2.07-1.7,2.06-3.7,1.09-6-.27-.65-.36-1.38-.57-2.06s-.32-1.59.59-1.88,1.22.39,1.47,1.2c.38,1.28.85,2.53,1.4,4.16A33.9,33.9,0,0,1,25,35.56c.34-.34,1-.27,1.58-.39.05.59.31,1.29.12,1.76a5.76,5.76,0,0,1-1.49,2.2c-1.86,1.55-1.92,3.28-1,5.43.71,1.56,1.14,3.27,1.79,5.18,2.64-2.69,5-5.07,7.34-7.52a1.84,1.84,0,0,0,.1-1.39c-.53-1.85-1.19-3.65-1.68-5.52a2.14,2.14,0,0,1,.4-1.55c.15-.19.89,0,1.23.21a2.39,2.39,0,0,1,.64,1.14c.57,1.48,1.09,3,1.72,4.72l5.7-5.46Zm2.51,28.29c.44-.27.59-.31.67-.42,2.27-3,4.55-6,6.77-9a1.91,1.91,0,0,0-.09-1.47c-1-2.15-2-4.24-3-6.4-.48-1.08-.92-.92-1.56-.22-2,2.18-4,4.33-6,6.54A1.88,1.88,0,0,0,41.84,55C43,58.14,44.22,61.27,45.47,64.52ZM30.65,61.93c2.26-2.29,4.26-4.28,6.22-6.31,2.26-2.33,1.92-1.55.79-4.26-.56-1.35-1.15-2.69-1.74-4-.4-.89-.82-1.77-1.35-2.9-1.92,2-3.68,3.7-5.39,5.5-2.22,2.35-2.2,2.37-1,5.42C29,57.4,29.72,59.47,30.65,61.93ZM64.3,45.24c-2.77,3.31-5.2,6.19-7.58,9.12a1.68,1.68,0,0,0,.05,1.35c1.08,2.2,2.22,4.37,3.37,6.53a8.18,8.18,0,0,0,.83,1c2.23-3,4.36-5.81,6.46-8.66a1.32,1.32,0,0,0,.18-1C66.6,51,65.53,48.34,64.3,45.24Zm2.61,50.94a3.55,3.55,0,0,0,3.46-3.6c0-2.13-2-4.59-3.82-4.63-1.64,0-3.09,1.84-3.11,4S65,96.15,66.91,96.18ZM33.22,97.7A4.17,4.17,0,0,0,37,93.57a3.59,3.59,0,0,0-3.33-3.46,5,5,0,0,0-4.3,4.3C29.37,96.07,31.32,97.74,33.22,97.7Z"/><path class="cls-1" d="M89.09,29c0-2.37,1.41-3.82,3.68-3.82s3.89,1.62,3.85,4.19-1.69,4.33-3.87,4.3S89.07,31.77,89.09,29Z"/><path class="cls-1" d="M43,36.23l-1.48-1.86-5.7,5.46c-.63-1.74-1.15-3.24-1.72-4.72A2.39,2.39,0,0,0,33.42,34c-.34-.24-1.08-.4-1.23-.21a2.14,2.14,0,0,0-.4,1.55c.49,1.87,1.15,3.67,1.68,5.52a1.84,1.84,0,0,1-.1,1.39c-2.32,2.45-4.7,4.83-7.34,7.52-.65-1.91-1.08-3.62-1.79-5.18-1-2.15-.91-3.88,1-5.43a5.76,5.76,0,0,0,1.49-2.2c.19-.47-.07-1.17-.12-1.76-.54.12-1.24,0-1.58.39a33.9,33.9,0,0,0-2.5,3.12c-.55-1.63-1-2.88-1.4-4.16-.25-.81-.58-1.5-1.47-1.2S18.79,34.4,19,35.2s.3,1.41.57,2.06c1,2.3,1,4.3-1.09,6a2.11,2.11,0,0,0-.16,1.92c.54.84,1.28.32,1.76-.31a9.06,9.06,0,0,0,.73-1.5l.66.42c.44,1.21.87,2.42,1.31,3.62.36,1,.68,2,1.09,3a2,2,0,0,1-.38,2.48,5.05,5.05,0,0,0-1.15,1.54c-.17.43-.16,1.32.08,1.48a1.72,1.72,0,0,0,1.49,0c.48-.21.83-.75,1.46-1.36.8,2,1.55,3.82,2.22,5.65,1.3,3.55,1.27,3.55-1.37,6.07a15.29,15.29,0,0,0-2.33,2.43c-.32.48-.12,1.36-.15,2,.58-.11,1.31,0,1.71-.36,1.34-1.18,2.57-2.51,4.18-4.13.37,1.54.68,2.66.9,3.8.17.93.41,1.81,1.48,1.57s1-1.25.75-2.2A13.17,13.17,0,0,0,32.14,67c-.84-1.71-.46-2.86.89-4,1.85-1.64,3.54-3.52,5.31-5.28.4-.4.85-.74,1.41-1.23L42.83,64a12.46,12.46,0,0,0,.6,1.55A1.81,1.81,0,0,1,43,68.14c-.38.33-.37,1.17-.53,1.77.54.08,1.18.38,1.61.18.72-.34,1.12-.39,1.66.34.25.35.95.31,1.44.45.13-.6.55-1.41.33-1.74-1-1.53-.24-2.5.62-3.61,1.6-2.08,3.09-4.26,4.65-6.37.52-.71,1.12-1.35,1.89-2.26.68,1.21,1.26,2.23,1.82,3.26s1.19,2.32,1.81,3.46,1,2.15-.15,3.24a1.91,1.91,0,0,0,0,1.59,6,6,0,0,0,2,.31l.29-.58c.12.28.2.71.39.79a2.24,2.24,0,0,0,1.5.26,1.59,1.59,0,0,0,.29-1.43c-1-1.54-.14-2.52.72-3.62,1.59-2,3.11-4.1,4.66-6.15.29-.38.61-.73,1.11-1.32,1.12,1.95,2.17,3.68,3.1,5.48.14.26-.15,1-.42,1.28-.73.86-1.55,1.64-2.33,2.45-.62.63-1,1.48-.26,2.09.34.29,1.34.08,1.8-.28a30.12,30.12,0,0,0,2.88-2.89l2.23,6a21,21,0,0,1-2.14.37C69,71.5,64,71.68,59.1,72c-3.87.27-7.74.77-11.61,1.12-3.69.34-7.4.62-11.09,1-3,.27-6,.58-9,.87-1.59.16-3.17.36-4.76.44-.86,0-1.46-.1-1.68-1.43-1.87-11.18-3.85-22.33-5.83-33.48-.4-2.26-.92-4.48-1.36-6.73-.36-1.84-.28-2,1.42-1.95,2.86.06,5.72.26,8.59.26,5,0,10.07-.16,15.1-.13,3.06,0,6.11.37,9.17.39,3.48,0,7-.18,10.44-.25,1.88,0,3.75,0,5.63,0,5.17.06,10.34.11,15.51.21a6,6,0,0,1,2.34.45,1.86,1.86,0,0,1,.76,1.37c.2,2.8.47,5.62.4,8.42-.16,6.58-.47,13.15-.77,19.73a55.1,55.1,0,0,1-.56,5.59c-.39,2.54-1.79,3.41-4.32,2.8.39-2.4-.59-4.47-1.53-6.5a1.78,1.78,0,0,1,.28-2.29,23.77,23.77,0,0,0,2.65-3.18,2.32,2.32,0,0,0,.24-2c-.55-.71-1.34-.39-1.92.32-1,1.16-2,2.29-3.12,3.63-1.15-2-2.19-3.74-3.15-5.54a1.44,1.44,0,0,1,.11-1.23c2-2.54,4.13-5,6.22-7.52.11-.13.32-.15.67-.3.15.53.32,1,.42,1.46.2,1,.94,1.23,1.6.9.35-.17.61-1,.56-1.56-.15-1.37-1.26-2.54-.75-4.08a.63.63,0,0,0-.23-.52c-2.3-1.58-2.93-4.38-4.19-6.71-.07-.14-.09-.34-.2-.4-.47-.32-1-.6-1.45-.89-.19.62-.67,1.35-.51,1.82a26.77,26.77,0,0,0,1.94,4.25c1.63,3,1.65,2.93-.56,5.45-1.65,1.88-3.24,3.82-5,5.84a6.49,6.49,0,0,1-.61-.89c-.87-2-1.69-4-2.59-6a1.79,1.79,0,0,1,.38-2.3c1.55-1.55,3.05-3.18,4.59-4.76.66-.67,1.31-1.49.56-2.33s-1.53-.16-2.17.52c-1.58,1.67-3.16,3.32-4.91,5.15-1-1.9-1.83-3.59-2.75-5.23A2,2,0,0,0,61,35c-.26,0-.8.45-.9.8a2.27,2.27,0,0,0,.23,1.41c.76,1.64,1.65,3.22,2.37,4.87a1.93,1.93,0,0,1-.09,1.62c-2.32,2.83-4.71,5.57-7.09,8.34a3.55,3.55,0,0,1-.6.35c-.64-1.22-1.32-2.4-1.89-3.65-.68-1.5-1.88-3.15-1.69-4.55s1.87-2.4,2.9-3.59c1.15-1.34,2.38-2.63,3.42-4.07.31-.43.09-1.32.11-2-.58.13-1.33,0-1.69.43-1.68,1.71-3.25,3.56-4.86,5.34-.35.39-.75.74-1.32,1.3-.8-1.85-1.51-3.49-2.23-5.13-.16-.37-.35-.72-.51-1.09-.33-.81-.85-1.6-1.67-1a2.25,2.25,0,0,0-.31,1.92c.75,2.14,1.72,4.19,2.51,6.32a2,2,0,0,1-.15,1.62c-2,2.4-4.18,4.71-6.3,7a4.67,4.67,0,0,1-.79.53c-.95-2.13-1.92-4.15-2.75-6.24-1.17-3-1.12-3,1.09-5.1C40.12,39.07,41.46,37.71,43,36.23Z"/><path class="cls-1" d="M45.47,64.52C44.22,61.27,43,58.14,41.84,55a1.88,1.88,0,0,1,.46-1.43c2-2.21,4-4.36,6-6.54.64-.7,1.08-.86,1.56.22,1,2.16,2,4.25,3,6.4a1.91,1.91,0,0,1,.09,1.47c-2.22,3-4.5,6-6.77,9C46.06,64.21,45.91,64.25,45.47,64.52Z"/><path class="cls-1" d="M30.65,61.93c-.93-2.46-1.69-4.53-2.48-6.57-1.19-3-1.21-3.07,1-5.42,1.71-1.8,3.47-3.54,5.39-5.5.53,1.13,1,2,1.35,2.9.59,1.33,1.18,2.67,1.74,4,1.13,2.71,1.47,1.93-.79,4.26C34.91,57.65,32.91,59.64,30.65,61.93Z"/><path class="cls-1" d="M64.3,45.24c1.23,3.1,2.3,5.73,3.31,8.39a1.32,1.32,0,0,1-.18,1c-2.1,2.85-4.23,5.68-6.46,8.66a8.18,8.18,0,0,1-.83-1c-1.15-2.16-2.29-4.33-3.37-6.53a1.68,1.68,0,0,1-.05-1.35C59.1,51.43,61.53,48.55,64.3,45.24Z"/><path class="cls-1" d="M66.91,96.18c-1.91,0-3.5-2-3.47-4.2s1.47-4.06,3.11-4c1.79,0,3.82,2.5,3.82,4.63A3.55,3.55,0,0,1,66.91,96.18Z"/><path class="cls-1" d="M33.22,97.7c-1.9,0-3.85-1.63-3.83-3.29a5,5,0,0,1,4.3-4.3A3.59,3.59,0,0,1,37,93.57,4.17,4.17,0,0,1,33.22,97.7Z"/><path class="cls-2" d="M93,12.17c-.06,1.42-.48,10.46,1.59,10.94s4.93-7.35,5.51-8.89c1.15-3.05,3.18-8.44,1.6-11.61A4,4,0,0,0,99.11.48a3.93,3.93,0,0,0-3.37,1.13C93.33,3.85,93.11,8.71,93,12.17Z"/><ellipse class="cls-2" cx="92.72" cy="29.23" rx="3.51" ry="4.01"/><path class="cls-3" d="M105.09,11.68c-.38,1-2.78,7.09-1.46,7.9s5.11-3.9,5.87-4.83c1.5-1.83,4.16-5.07,3.82-7.62a2.93,2.93,0,0,0-1.26-2.06,2.86,2.86,0,0,0-2.58,0C107.3,6,106,9.33,105.09,11.68Z"/><ellipse class="cls-3" cx="100.94" cy="23.37" rx="2.92" ry="2.56" transform="translate(46.36 111.44) rotate(-71.25)"/></g></g></svg>