<svg width="61" height="61" viewBox="0 0 61 61" fill="none" xmlns="http://www.w3.org/2000/svg">
<path d="M8.33701 6.125H9.56074L9.80646 7.3238L17.0622 42.7223C17.1754 43.1249 17.4046 43.4773 17.8109 43.7975C18.2476 44.1416 18.6136 44.25 18.9369 44.25H51.5108C51.8923 44.25 52.2762 44.1286 52.6963 43.7975C53.1136 43.4686 53.3441 43.1058 53.454 42.6896C53.4542 42.689 53.4544 42.6884 53.4545 42.6877L59.2893 20.2341L59.2924 20.222L59.2958 20.21C59.6204 19.041 59.5331 18.1784 59.2108 17.5089C59.0404 17.1548 58.8698 16.9826 58.7405 16.8952C58.6203 16.8141 58.4541 16.75 58.1804 16.75H58.0512L57.924 16.7279L15.7029 9.40076L14.6924 9.22539L14.4892 8.22011L13.4295 2.97865C13.3215 2.62444 13.0986 2.28341 12.6787 1.9525C12.2421 1.60837 11.876 1.5 11.5527 1.5H3.8112C3.12306 1.5 2.60579 1.7191 2.16251 2.16253C1.71336 2.61184 1.5 3.12221 1.5 3.78271C1.5 4.43127 1.71483 4.95506 2.19229 5.43268C2.67585 5.91641 3.19163 6.125 3.8112 6.125H8.33701ZM43.8289 51.0625C42.6343 51.0625 41.6674 51.4635 40.8403 52.2909C40.0131 53.1184 39.6121 54.0858 39.6121 55.2812C39.6121 56.4767 40.0131 57.4441 40.8403 58.2716C41.6674 59.099 42.6343 59.5 43.8289 59.5C45.0234 59.5 45.9903 59.099 46.8174 58.2716C47.6446 57.4441 48.0457 56.4767 48.0457 55.2812C48.0457 54.0858 47.6446 53.1184 46.8174 52.2909C45.9903 51.4635 45.0234 51.0625 43.8289 51.0625ZM24.7728 51.0625C23.5783 51.0625 22.6114 51.4635 21.7843 52.2909C20.9571 53.1184 20.556 54.0858 20.556 55.2812C20.556 56.4767 20.9571 57.4441 21.7843 58.2716C22.6114 59.099 23.5783 59.5 24.7728 59.5C25.9674 59.5 26.9343 59.099 27.7614 58.2716C28.5886 57.4441 28.9896 56.4767 28.9896 55.2812C28.9896 54.0858 28.5886 53.1184 27.7614 52.2909C26.9343 51.4635 25.9674 51.0625 24.7728 51.0625Z" stroke="#437DBC" stroke-width="3"/>
</svg>
