<svg xmlns="http://www.w3.org/2000/svg" viewBox="0 0 30.01 29.58" width="25"
height="25"><defs><style>.cls-1{fill:#4f4f4f;}.cls-2{fill:#fff;}</style></defs><title>Recurso 1</title><g id="Capa_2" data-name="Capa 2"><g id="Capa_1-2" data-name="Capa 1"><path class="cls-1" d="M29.13,11.59a28,28,0,0,1-2-2.59C22.91-3.47,6.71-2.67,3.16,9.47,1.84,9.38,1.71,11.07.8,11.65c-1.91,1.78,0,4,1.56,5,2,17.78,24.55,16.79,25.73-.28C29.69,15.39,30.9,13.08,29.13,11.59Z"/><path class="cls-2" d="M28.79,12.44c-.42-.27-.55-.85-1.06-1C23.59-1.24,7.86-3.58,3.6,10.36c-.63-.08-1.33.07-1.3.86-.93.91-2.48,2.25-1.06,3.42.47.48.8,1.08,1.58.9,1,17.31,23.78,17.68,24.66,0C28.64,15.26,30.16,13.46,28.79,12.44Zm-26.54.37c-.36,0-.32-.68,0-.69S2.64,12.85,2.25,12.81ZM6.77,6.2c5.4-7.56,16.92-3.74,18.73,4.25-3.19.17-6.43,0-9.65.06l-.06.79H14.13l0-.77H4.5A12.43,12.43,0,0,1,6.77,6.2Zm11.72,7.55c-.28,2.63,1.15,3.87,3,4.89-3.06-.14-4.47-3.37-4.12-6.19.36,0,3.77-.35,4,.06C20.54,13,18.5,12.45,18.49,13.75Zm-3.65-1.62c-.21.32-.48.49-.54,0S14.64,11.81,14.84,12.13ZM2.76,11a.81.81,0,0,1,1.16-.07C3.75,11.32,3.21,11.36,2.76,11Zm1.41,1.88c0-.13,0-.26,0-.38.35,0,3.31-.41,4,0-.91.33-1.84.36-2.79.66a4.7,4.7,0,0,0,3,5.47C5.46,18.53,4.05,15.69,4.17,12.85ZM14.43,28.18c-4.69.12-9.67-5.29-10.16-9.53,3.54,4.14,9.85,1.16,9.84-4.06a1.16,1.16,0,0,1,1.69,0c.3,5.85,6.59,8.06,10,3.95C24.87,23.41,20.56,28.53,14.43,28.18Z"/></g></g></svg>