<svg 
xmlns="http://www.w3.org/2000/svg" 
viewBox="0 0 169.08 145.9"
width="30"
height="30"
>
<defs><style>.cls-1{fill:#fff;}</style></defs><title>Recurso 2ldpi</title><g id="Capa_2" data-name="Capa 2"><g id="LOGO"><g id="cara"><path class="cls-1" d="M164.14,57.14A15.59,15.59,0,0,1,159,51.35a7.19,7.19,0,0,0-3-3.21,6.08,6.08,0,0,1-3.14-3.6c-13.61-32.38-48.85-50.63-83-42.69C45.89,7.39,29.09,21.8,19,44.05c-.42.93-.83,1.87-1.23,2.79-.72.06-1.28.08-1.83.16a7,7,0,0,0-5.66,3.93,18.63,18.63,0,0,1-5.79,6.51A11,11,0,0,0,4.35,75,7.94,7.94,0,0,1,6,76.37a9.74,9.74,0,0,0,5.82,3.93,1.67,1.67,0,0,1,1.41,1.42c.32,1.57.74,3.11,1,4.68,7.08,38.67,44.69,65.15,83.55,58.46,23.26-4,40.6-16.74,52.09-37.35a70.65,70.65,0,0,0,8.32-27.13,22.32,22.32,0,0,0,2.66-1.63,28.46,28.46,0,0,0,2.17-2.22,6.33,6.33,0,0,1,1.07-.94C170.73,71.38,170.73,61.68,164.14,57.14Z"/><path d="M162.21,61.28c-.54-.32-1.3-.57-1.54-1.06a8.19,8.19,0,0,0-4.46-3.84c0-2.12-.5-3.92-2.79-4.49-1.91-.48-2.7-1.81-3.37-3.56C138.32,17.84,105.67-.06,74.48,5.25c-26,4.42-43.69,19.54-53.46,44l-.77,1.91c-1.24,0-2.43-.06-3.61,0a3.54,3.54,0,0,0-3.58,3,8,8,0,0,0-.17,1.19c-1.46,1.32-2.63,2.36-3.79,3.42A17.13,17.13,0,0,1,7,60.61,6.63,6.63,0,0,0,7,72a6.57,6.57,0,0,1,2.2,2.09,5,5,0,0,0,4.25,2.29c.79,0,1.57,0,2.43,0,.64,2.55,1.41,5,1.84,7.49,3.28,18.79,12.47,34,28,45,17.39,12.36,36.66,15.43,57.28,10.42a67.86,67.86,0,0,0,50.94-55.47c.38-2.43.64-4.89.94-7.3a6.31,6.31,0,0,1,1.25-.44,5.4,5.4,0,0,0,4.56-3,3.64,3.64,0,0,1,1.46-1.12A6,6,0,0,0,162.21,61.28ZM12.64,63.09a1.54,1.54,0,0,1-1.48-1.57,1.68,1.68,0,0,1,1.53-1.79,1.72,1.72,0,0,1,1.61,1.73A1.61,1.61,0,0,1,12.64,63.09ZM38.1,31A61.79,61.79,0,0,1,76,11.2c33.29-4.46,59.55,17,67.65,40.39-2.2.58-4.42.21-6.6.27s-4.64,0-7,0H89.27c-.11,1.39-.21,2.55-.32,3.84H79.57c-.06-1.07-.13-2.22-.22-3.74h-54A58,58,0,0,1,38.1,31Zm66.07,36.67a45.73,45.73,0,0,0,.52,7.4c1.35,7.75,6,12.46,13.63,14.33a7.91,7.91,0,0,1,1.84.49c.33.18.47.74.94,1.57-8.72-1.06-15.69-3.92-19.9-11.49-2.7-4.85-4.08-12.85-3.3-18.59,1.3-.37,20.1-.84,21.68-.51.25.06.44.34,1,.8-.92.25-1.46.45-2,.54-3.85.65-7.73,1.18-11.56,2C104.25,64.67,104.15,64.85,104.17,67.62ZM83.56,59.77c-.71.68-1.1,1.29-1.65,1.51s-1.34-.67-1.35-1.57.69-1.84,1.32-1.57S82.88,59.07,83.56,59.77ZM15.49,54.14A5.11,5.11,0,0,1,22,53.77C21.08,55.8,18,56,15.49,54.14Zm8,9.14a15.89,15.89,0,0,1,.1-1.85c1.54-.54,17.15-1,21.24-.66a2,2,0,0,1,1.2.69c-2.47,1.2-5.2,1-7.75,1.53s-5.27,1.12-8,1.7c-.5,5.93-.4,11.45,2.42,16.56,2.48,4.5,6.55,6.83,11.36,8.08a9.3,9.3,0,0,1,1.85.48c.34.18.51.71,1,1.45-13.15-.77-21.57-8.88-23-21.54C23.65,67.59,23.58,65.43,23.46,63.28Zm57.83,74.54c-16.84-.84-31.12-7.67-42.84-19.88C30.87,110.05,24.4,97.18,24,91.48l1.15,1a34.22,34.22,0,0,0,39.11,4.25C72.75,91.9,77.35,84.36,79,74.86c.08-.47.12-1,.2-1.42.1-.64.21-1.27.28-1.73,3.23-2.41,6.3-2.36,9.5-.1.32,1.7.62,3.74,1.09,5.75,3.62,15.75,16.63,23,28.46,23.63,8.89.49,16.93-1.73,23.91-7.41.55-.46,1.05-1,1.58-1.47s.92-.76,1.55-1.29C140.1,114.63,115.83,139.53,81.29,137.82Z"/><path d="M107.9,114.89c2-2.18,2.7-4.89,3.1-8a6.73,6.73,0,0,0-1.43.19q-2.29,1-4.53,2.16a11.32,11.32,0,0,1-10.14.44c-.34-.15-.71-.26-1.06-.39-.07.16-.15.31-.22.47,2.7,2.45,5.43,4.87,9,6.1C104.55,116.57,106.42,116.48,107.9,114.89Zm-2.72-3c1.6,0,2.78.77,2.72,1.73s-1.19,1.57-2.62,1.63c-1.62.08-3-.76-3-1.77S103.59,111.89,105.18,111.91Z"/><path d="M114.54,116.42l-5.74,3a12,12,0,0,1-11.26.23,11.44,11.44,0,0,0-1.33-.42l-.16.45c1.77.87,3.51,1.83,5.32,2.59a7.23,7.23,0,0,0,5.82,0c3.23-1.42,5.74-3.86,8.6-5.79l-.23-.4A10.36,10.36,0,0,0,114.54,116.42Z"/><path d="M132.73,104.49a5,5,0,0,0,5.32-.12C136,103.45,134.46,103.28,132.73,104.49Z"/><path d="M44.22,104.36a5.28,5.28,0,0,0-5.45.1A5.13,5.13,0,0,0,44.22,104.36Z"/><path d="M123.23,109c1.9.92,2.84.9,4.54-.08C126,107.84,124.68,107.87,123.23,109Z"/><path d="M49.09,109c1.84.86,2.38.88,4.73,0C51.86,107.83,50.53,107.86,49.09,109Z"/><path d="M130.78,107.52a4,4,0,0,0,4.65-.11C133.93,106.71,132.44,106.27,130.78,107.52Z"/><path d="M118.9,106.36c2.08,1.16,3.38,1.11,4.69-.09C121.64,105.45,121.16,105.45,118.9,106.36Z"/><path d="M53.09,106.6a4.64,4.64,0,0,0,4.77-.09C56,105.36,54.66,105.38,53.09,106.6Z"/><path d="M125.68,105.77c1.86,1.22,3.1,1.21,4.83-.14A5.21,5.21,0,0,0,125.68,105.77Z"/><path d="M46.3,105.85a3.7,3.7,0,0,0,4.67,0A4.36,4.36,0,0,0,46.3,105.85Z"/><path d="M41.42,107.83c1.53.48,3,.73,4.49-.24C44.06,106.32,42.34,106.41,41.42,107.83Z"/><path d="M56.49,37.85a9.1,9.1,0,0,0-9.15-9.33A10.67,10.67,0,0,0,36.83,39.28a9.14,9.14,0,0,0,9.25,9.24A10.76,10.76,0,0,0,56.49,37.85ZM45.91,47.32a8,8,0,0,1-8-8.33,9.68,9.68,0,0,1,9.4-9.34,8.07,8.07,0,0,1,8.14,8.25A9.6,9.6,0,0,1,45.91,47.32Z"/><path d="M121.54,46.43a17.93,17.93,0,0,0-13.89-4.93c-4.2.35-9.84,2.92-11.31,5.27C104.77,43.38,113.09,42.44,121.54,46.43Z"/><path d="M57.55,31.26A5.2,5.2,0,0,0,62.42,26a4.51,4.51,0,0,0-4.58-4.52,5.3,5.3,0,0,0-5,5.11A4.62,4.62,0,0,0,57.55,31.26ZM58,22.67A3.39,3.39,0,0,1,61.32,26a4,4,0,0,1-3.87,4A3.26,3.26,0,0,1,54,26.62,4,4,0,0,1,58,22.67Z"/></g></g></g></svg>